<svg width="800" height="800" viewBox="0 0 800 800" fill="none"
    xmlns="http://www.w3.org/2000/svg">
    <g>
        <path d="M213.62 727.295V765H47.3311V727.295H213.62ZM211.203 557.3L68.7617 765H34.7627V737.285L178.332 530.391H211.203V557.3ZM194.606 530.391V568.257H34.9238V530.391H194.606Z" fill="currentColor"/>
        <path d="M639 445L691.843 591" stroke="currentColor" stroke-width="74.56" stroke-linecap="square"/>
        <path d="M320 635.679C636.705 692.93 625.313 436 625.313 436" stroke="currentColor" stroke-width="74.5563" stroke-linecap="square"/>
        <path d="M580.602 253.745V290H420.113V259.062L496.007 177.69C503.634 169.204 509.649 161.738 514.054 155.293C518.458 148.74 521.627 142.886 523.561 137.729C525.602 132.466 526.622 127.471 526.622 122.744C526.622 115.654 525.44 109.585 523.077 104.536C520.714 99.3799 517.223 95.4053 512.604 92.6123C508.092 89.8193 502.506 88.4229 495.846 88.4229C488.756 88.4229 482.633 90.1416 477.477 93.5791C472.428 97.0166 468.561 101.797 465.875 107.92C463.297 114.043 462.008 120.972 462.008 128.706H415.44C415.44 114.741 418.771 101.958 425.431 90.3564C432.091 78.6475 441.49 69.3555 453.629 62.4805C465.768 55.498 480.162 52.0068 496.812 52.0068C513.248 52.0068 527.105 54.6924 538.385 60.0635C549.771 65.3271 558.365 72.9541 564.166 82.9443C570.074 92.8271 573.028 104.644 573.028 118.394C573.028 126.128 571.793 133.701 569.322 141.113C566.852 148.418 563.307 155.723 558.688 163.027C554.176 170.225 548.697 177.529 542.252 184.941C535.807 192.354 528.663 200.034 520.821 207.983L480.055 253.745H580.602ZM729.327 52.9736H736.095V90.0342H733.355C721.109 90.0342 710.206 91.8604 700.646 95.5127C691.085 99.165 682.975 104.375 676.314 111.143C669.762 117.803 664.713 125.859 661.168 135.312C657.73 144.766 656.012 155.347 656.012 167.056V206.05C656.012 214.429 656.817 221.841 658.429 228.286C660.147 234.624 662.564 239.941 665.68 244.238C668.902 248.428 672.662 251.597 676.959 253.745C681.256 255.786 686.09 256.807 691.461 256.807C696.51 256.807 701.075 255.732 705.157 253.584C709.347 251.436 712.892 248.428 715.792 244.561C718.8 240.586 721.056 235.967 722.56 230.703C724.171 225.332 724.977 219.478 724.977 213.14C724.977 206.802 724.171 200.947 722.56 195.576C721.056 190.205 718.8 185.586 715.792 181.719C712.784 177.744 709.132 174.683 704.835 172.534C700.538 170.386 695.704 169.312 690.333 169.312C683.028 169.312 676.583 171.03 670.997 174.468C665.519 177.798 661.222 182.095 658.106 187.358C654.991 192.622 653.326 198.154 653.111 203.955L639.093 194.932C639.415 186.66 641.134 178.818 644.249 171.406C647.472 163.994 651.876 157.441 657.462 151.748C663.155 145.947 669.977 141.436 677.926 138.213C685.875 134.883 694.845 133.218 704.835 133.218C715.792 133.218 725.406 135.312 733.678 139.502C742.057 143.691 749.039 149.438 754.625 156.743C760.211 164.048 764.4 172.48 767.193 182.041C769.986 191.602 771.383 201.807 771.383 212.656C771.383 224.043 769.503 234.624 765.743 244.399C762.091 254.175 756.773 262.715 749.791 270.02C742.916 277.324 734.645 283.018 724.977 287.1C715.309 291.182 704.459 293.223 692.428 293.223C679.967 293.223 668.634 290.967 658.429 286.455C648.331 281.836 639.63 275.391 632.325 267.119C625.021 258.848 619.381 249.019 615.406 237.632C611.539 226.245 609.605 213.784 609.605 200.249V182.202C609.605 163.296 612.345 146.001 617.823 130.317C623.409 114.526 631.412 100.884 641.832 89.3896C652.252 77.7881 664.82 68.8184 679.537 62.4805C694.254 56.1426 710.851 52.9736 729.327 52.9736Z" fill="currentColor"/>
    </g>
</svg>
